<?xml version="1.0" encoding="UTF-8" standalone="no"?>
<!-- Created with Inkscape (http://www.inkscape.org/) -->

<svg
   xmlns:dc="http://purl.org/dc/elements/1.1/"
   xmlns:cc="http://creativecommons.org/ns#"
   xmlns:rdf="http://www.w3.org/1999/02/22-rdf-syntax-ns#"
   xmlns:svg="http://www.w3.org/2000/svg"
   xmlns="http://www.w3.org/2000/svg"
   xmlns:xlink="http://www.w3.org/1999/xlink"
   xmlns:sodipodi="http://sodipodi.sourceforge.net/DTD/sodipodi-0.dtd"
   xmlns:inkscape="http://www.inkscape.org/namespaces/inkscape"
   width="125.07792"
   height="49.999191"
   viewBox="0 0 125.07793 49.99919"
   id="svg4291"
   version="1.1"
   inkscape:version="0.91 r13725"
   sodipodi:docname="NandGate.svg">
  <defs
     id="defs4293">
    <linearGradient
       id="jcify90-_0066ff-_fff"
       x1="22.471123"
       y1="40.427212"
       x2="22.471123"
       y2="3.1156476"
       gradientTransform="scale(1.3832179,0.72295191)"
       gradientUnits="userSpaceOnUse">
      <stop
         offset="0%"
         stop-color="#0066ff"
         stop-opacity="1"
         style="-webkit-tap-highlight-color: rgba(0, 0, 0, 0);"
         id="stop5" />
      <stop
         offset="100%"
         stop-color="#ffffff"
         stop-opacity="1"
         style="-webkit-tap-highlight-color: rgba(0, 0, 0, 0);"
         id="stop7" />
    </linearGradient>
    <linearGradient
       inkscape:collect="always"
       xlink:href="#jcify90-_0066ff-_fff-3"
       id="linearGradient4175"
       gradientUnits="userSpaceOnUse"
       gradientTransform="matrix(1.990001,0,0,0.71412723,-107.61992,-11.978486)"
       x1="22.471123"
       y1="40.427212"
       x2="22.471123"
       y2="3.1156476" />
    <linearGradient
       id="jcify90-_0066ff-_fff-3"
       x1="22.471123"
       y1="40.427212"
       x2="22.471123"
       y2="3.1156476"
       gradientTransform="matrix(1.9895996,0,0,0.72295187,-339.25409,-17.356872)"
       gradientUnits="userSpaceOnUse">
      <stop
         offset="0%"
         stop-color="#0066ff"
         stop-opacity="1"
         style="-webkit-tap-highlight-color: rgba(0, 0, 0, 0);"
         id="stop5-6" />
      <stop
         offset="100%"
         stop-color="#ffffff"
         stop-opacity="1"
         style="-webkit-tap-highlight-color: rgba(0, 0, 0, 0);"
         id="stop7-7" />
    </linearGradient>
  </defs>
  <sodipodi:namedview
     id="base"
     pagecolor="#ffffff"
     bordercolor="#666666"
     borderopacity="1.0"
     inkscape:pageopacity="0.0"
     inkscape:pageshadow="2"
     inkscape:zoom="3.9595932"
     inkscape:cx="-26.410684"
     inkscape:cy="-5.4716358"
     inkscape:document-units="px"
     inkscape:current-layer="layer1"
     showgrid="false"
     fit-margin-left="10"
     fit-margin-right="10"
     fit-margin-top="0"
     fit-margin-bottom="0"
     inkscape:window-width="1855"
     inkscape:window-height="1056"
     inkscape:window-x="1985"
     inkscape:window-y="24"
     inkscape:window-maximized="1"
     units="px" />
  <metadata
     id="metadata4296">
    <rdf:RDF>
      <cc:Work
         rdf:about="">
        <dc:format>image/svg+xml</dc:format>
        <dc:type
           rdf:resource="http://purl.org/dc/dcmitype/StillImage" />
        <dc:title></dc:title>
      </cc:Work>
    </rdf:RDF>
  </metadata>
  <g
     inkscape:label="Layer 1"
     inkscape:groupmode="layer"
     id="layer1"
     >
    <path
       style="opacity:1;fill:none;fill-opacity:1;stroke:#000000;stroke-width:2.27929544;stroke-linejoin:round;stroke-miterlimit:4;stroke-dasharray:none;stroke-opacity:1"
       d="m 29.982422,1.140625 0,47.695313 20.236328,0 c 3.87279,-0.09411 7.762864,0.222274 11.621094,-0.228516 11.769179,-0.86076 25.727887,-14.345718 20.804687,-30.216797 -3.86788,-11.4267488 -14.478353,-17.06108 -24.033203,-17.25 -9.542909,-2.4e-4 -19.085857,6e-5 -28.628906,0 z M 90.707031,19.449219 A 5.6206879,5.5509597 0 0 0 85.085938,25 5.6206879,5.5509597 0 0 0 90.707031,30.550781 5.6206879,5.5509597 0 0 0 96.326172,25 5.6206879,5.5509597 0 0 0 90.707031,19.449219 Z"
       
       id="path4320"
       inkscape:connector-curvature="0" />
    <path
       style="fill:none;fill-rule:evenodd;stroke:#000000;stroke-width:2.50293589;stroke-linecap:butt;stroke-linejoin:miter;stroke-miterlimit:4;stroke-dasharray:none;stroke-opacity:1"
       d="m 10.000001,11.233446 19.55419,0"
       id="path4402"
       inkscape:connector-curvature="0" />
    <path
       inkscape:connector-curvature="0"
       id="path4404"
       d="m 10.000001,38.765746 19.55419,0"
       style="fill:none;fill-rule:evenodd;stroke:#000000;stroke-width:2.50293589;stroke-linecap:butt;stroke-linejoin:miter;stroke-miterlimit:4;stroke-dasharray:none;stroke-opacity:1" />
    <path
       style="fill:none;fill-rule:evenodd;stroke:#000000;stroke-width:2.50293589;stroke-linecap:butt;stroke-linejoin:miter;stroke-miterlimit:4;stroke-dasharray:none;stroke-opacity:1"
       d="m 95.52374,24.999596 19.55419,0"
       id="path4406"
       inkscape:connector-curvature="0" />
    <path
       style="fill:#0000ff"
       d="m 31.061892,2.5815355 c 9.19315,5e-5 18.38665,-2.3e-4 27.579611,0 9.22798,0.18246 19.421691,5.6541 23.087521,16.4532025 2.30565,7.451782 0.22309,14.191732 -3.92241,19.402882 -4.14843,5.21484 -10.395901,8.69029 -15.982541,9.09888 a 1.0330703,1.2574718 0 0 0 -0.0365,0.004 c -3.7468,0.43777 -7.609851,0.12826 -11.542571,0.22383 l 0.0204,-4.7e-4 -19.2035,0 0,-45.1816745 z"
       id="rect4304"
       inkscape:connector-curvature="0" />
    <path
       style="fill:url(#jcify90-_0066ff-_fff)"
       d="m 31.082459,2.252571 0,24.159714 c 3.12863,-2.275521 6.62158,-4.297522 10.765451,-5.053942 3.297449,-0.41071 6.757419,0.66406 8.796369,2.799571 2.05993,1.709771 3.767,3.940621 6.649721,4.805901 2.48868,0.43561 5.09369,0.24618 7.60804,0.0319 6.20929,-0.84447 12.166581,-2.59522 17.790441,-4.852561 -0.0646,-1.759691 -0.3663,-3.575801 -0.94218,-5.437041 C 78.084471,7.907001 67.88986,2.435011 58.66187,2.252551 c -9.192961,-2.2e-4 -18.386261,5e-5 -27.579411,0 z"
       id="path4350"
       inkscape:connector-curvature="0" />
    <path
       style="color:#000000;font-style:normal;font-variant:normal;font-weight:normal;font-stretch:normal;font-size:medium;line-height:normal;font-family:sans-serif;text-indent:0;text-align:start;text-decoration:none;text-decoration-line:none;text-decoration-style:solid;text-decoration-color:#000000;letter-spacing:normal;word-spacing:normal;text-transform:none;direction:ltr;block-progression:tb;writing-mode:lr-tb;baseline-shift:baseline;text-anchor:start;white-space:normal;clip-rule:nonzero;display:inline;overflow:visible;visibility:visible;opacity:1;isolation:auto;mix-blend-mode:normal;color-interpolation:sRGB;color-interpolation-filters:linearRGB;solid-color:#000000;solid-opacity:1;fill:#0000ff;fill-opacity:1;fill-rule:nonzero;stroke:none;stroke-width:2;stroke-linecap:butt;stroke-linejoin:round;stroke-miterlimit:4;stroke-dasharray:none;stroke-dashoffset:0;stroke-opacity:1;color-rendering:auto;image-rendering:auto;shape-rendering:auto;text-rendering:auto;enable-background:accumulate"
       d="m 90.666806,20.437239 c 2.563397,1.77e-4 4.619883,2.03115 4.620073,4.562759 -1.9e-4,2.531597 -2.056676,4.562571 -4.620073,4.562758 -2.563397,-1.87e-4 -4.619882,-2.031161 -4.620072,-4.562758 1.9e-4,-2.531609 2.056675,-4.562582 4.620072,-4.562759 z"
       id="path4163"
       inkscape:connector-curvature="0" />
    <path
       style="color:#000000;font-style:normal;font-variant:normal;font-weight:normal;font-stretch:normal;font-size:medium;line-height:normal;font-family:sans-serif;text-indent:0;text-align:start;text-decoration:none;text-decoration-line:none;text-decoration-style:solid;text-decoration-color:#000000;letter-spacing:normal;word-spacing:normal;text-transform:none;direction:ltr;block-progression:tb;writing-mode:lr-tb;baseline-shift:baseline;text-anchor:start;white-space:normal;clip-rule:nonzero;display:inline;overflow:visible;visibility:visible;opacity:1;isolation:auto;mix-blend-mode:normal;color-interpolation:sRGB;color-interpolation-filters:linearRGB;solid-color:#000000;solid-opacity:1;fill:url(#linearGradient4175);fill-opacity:1;fill-rule:nonzero;stroke:none;stroke-width:2.27929544;stroke-linecap:butt;stroke-linejoin:round;stroke-miterlimit:4;stroke-dasharray:none;stroke-dashoffset:0;stroke-opacity:1;color-rendering:auto;image-rendering:auto;shape-rendering:auto;text-rendering:auto;enable-background:accumulate"
       d="m 90.666806,20.437239 c -2.126299,1.48e-4 -3.884153,1.406608 -4.428633,3.328017 3.390024,0.192324 6.602592,1.0941 8.835773,2.538936 0.125065,-0.415574 0.212893,-0.846934 0.212933,-1.304194 -1.9e-4,-2.531609 -2.056676,-4.562582 -4.620073,-4.562759 z"
       id="path4173"
       inkscape:connector-curvature="0" />
  </g>
</svg>
