<?xml version="1.0" encoding="UTF-8" standalone="no"?>
<!-- Created with Inkscape (http://www.inkscape.org/) -->

<svg
   xmlns:dc="http://purl.org/dc/elements/1.1/"
   xmlns:cc="http://creativecommons.org/ns#"
   xmlns:rdf="http://www.w3.org/1999/02/22-rdf-syntax-ns#"
   xmlns:svg="http://www.w3.org/2000/svg"
   xmlns="http://www.w3.org/2000/svg"
   xmlns:xlink="http://www.w3.org/1999/xlink"
   xmlns:sodipodi="http://sodipodi.sourceforge.net/DTD/sodipodi-0.dtd"
   xmlns:inkscape="http://www.inkscape.org/namespaces/inkscape"
   width="126.46195"
   height="49.999195"
   viewBox="0 0 126.46196 49.999194"
   id="svg4291"
   version="1.1"
   inkscape:version="0.91 r13725"
   sodipodi:docname="NorGate.svg">
  <defs
     id="defs4293">
    <linearGradient
       id="jcify90-_0066ff-_fff"
       x1="22.471123"
       y1="40.427212"
       x2="22.471123"
       y2="3.1156476"
       gradientTransform="matrix(1.466552,0,0,0.72774183,-102.79022,-15.553382)"
       gradientUnits="userSpaceOnUse">
      <stop
         offset="0%"
         stop-color="#0066ff"
         stop-opacity="1"
         style="-webkit-tap-highlight-color: rgba(0, 0, 0, 0);"
         id="stop5" />
      <stop
         offset="100%"
         stop-color="#ffffff"
         stop-opacity="1"
         style="-webkit-tap-highlight-color: rgba(0, 0, 0, 0);"
         id="stop7" />
    </linearGradient>
    <linearGradient
       inkscape:collect="always"
       xlink:href="#jcify90-_0066ff-_fff-3"
       id="linearGradient4175"
       gradientUnits="userSpaceOnUse"
       gradientTransform="matrix(1.990001,0,0,0.71412723,-115.28543,-11.550633)"
       x1="22.471123"
       y1="40.427212"
       x2="22.471123"
       y2="3.1156476" />
    <linearGradient
       id="jcify90-_0066ff-_fff-3"
       x1="22.471123"
       y1="40.427212"
       x2="22.471123"
       y2="3.1156476"
       gradientTransform="matrix(1.9895996,0,0,0.72295187,-339.25409,-17.356872)"
       gradientUnits="userSpaceOnUse">
      <stop
         offset="0%"
         stop-color="#0066ff"
         stop-opacity="1"
         style="-webkit-tap-highlight-color: rgba(0, 0, 0, 0);"
         id="stop5-6" />
      <stop
         offset="100%"
         stop-color="#ffffff"
         stop-opacity="1"
         style="-webkit-tap-highlight-color: rgba(0, 0, 0, 0);"
         id="stop7-7" />
    </linearGradient>
  </defs>
  <sodipodi:namedview
     id="base"
     pagecolor="#ffffff"
     bordercolor="#666666"
     borderopacity="1.0"
     inkscape:pageopacity="0.0"
     inkscape:pageshadow="2"
     inkscape:zoom="7.2614568"
     inkscape:cx="20.700498"
     inkscape:cy="17.697538"
     inkscape:document-units="px"
     inkscape:current-layer="layer1"
     showgrid="false"
     fit-margin-left="10"
     fit-margin-right="10"
     fit-margin-top="0"
     fit-margin-bottom="0"
     inkscape:window-width="1855"
     inkscape:window-height="1056"
     inkscape:window-x="1985"
     inkscape:window-y="24"
     inkscape:window-maximized="1"
     units="px" />
  <metadata
     id="metadata4296">
    <rdf:RDF>
      <cc:Work
         rdf:about="">
        <dc:format>image/svg+xml</dc:format>
        <dc:type
           rdf:resource="http://purl.org/dc/dcmitype/StillImage" />
        <dc:title />
      </cc:Work>
    </rdf:RDF>
  </metadata>
  <g
     inkscape:label="Layer 1"
     inkscape:groupmode="layer"
     id="layer1">
    <path
       style="fill:none;fill-rule:evenodd;stroke:#000000;stroke-width:2.50293589;stroke-linecap:butt;stroke-linejoin:miter;stroke-miterlimit:4;stroke-dasharray:none;stroke-opacity:1"
       d="m 10,11.233446 19.55419,0"
       id="path4402"
       inkscape:connector-curvature="0" />
    <path
       inkscape:connector-curvature="0"
       id="path4404"
       d="m 10,38.765748 19.55419,0"
       style="fill:none;fill-rule:evenodd;stroke:#000000;stroke-width:2.50293589;stroke-linecap:butt;stroke-linejoin:miter;stroke-miterlimit:4;stroke-dasharray:none;stroke-opacity:1" />
    <path
       style="fill:none;fill-rule:evenodd;stroke:#000000;stroke-width:2.50293589;stroke-linecap:butt;stroke-linejoin:miter;stroke-miterlimit:4;stroke-dasharray:none;stroke-opacity:1"
       d="m 88.907769,24.999597 19.554191,0"
       id="path4406"
       inkscape:connector-curvature="0" />
    <path
       style="opacity:1;fill:none;fill-opacity:1;stroke:#000000;stroke-width:1.96336234;stroke-linejoin:round;stroke-miterlimit:4;stroke-dasharray:none;stroke-opacity:1"
       d="M 23.884766 0.98242188 A 6.6318394 24.254707 0 0 1 29.646484 25 A 6.6318394 24.254707 0 0 1 23.935547 48.992188 L 37.876953 48.992188 C 40.731622 48.897468 43.59747 49.217449 46.441406 48.763672 C 46.594149 48.748362 46.748685 48.718372 46.902344 48.695312 A 35.091659 36.01543 0 0 0 77.285156 24.982422 A 35.091659 36.01543 0 0 0 46.626953 1.2929688 C 45.767728 1.1110443 44.90922 1.0052853 44.0625 0.98242188 C 37.336882 0.98219133 30.610495 0.98245908 23.884766 0.98242188 z M 83.041016 19.867188 A 5.6206879 5.5509597 0 0 0 77.421875 25.417969 A 5.6206879 5.5509597 0 0 0 83.041016 30.96875 A 5.6206879 5.5509597 0 0 0 88.662109 25.417969 A 5.6206879 5.5509597 0 0 0 83.041016 19.867188 z "
       transform="translate(0,-1.9073487e-6)"
       id="path4320" />
    <path
       inkscape:connector-curvature="0"
       id="path4228"
       d="m 26.192665,2.2770733 c 5.926298,-2.02e-5 11.853246,-2.014e-4 17.779164,0 0.808697,0.021743 1.631486,0.1223453 2.457821,0.2968739 a 0.84220914,1.1473132 0 0 0 0.08659,0.011777 C 60.013606,3.5107633 71.619229,12.461416 76.316088,25.132568 71.665013,37.726207 60.187004,46.666381 46.786135,47.699048 a 0.84220914,1.1473132 0 0 0 -0.04471,0.004 c -0.168086,0.02516 -0.311764,0.05104 -0.43009,0.06292 a 0.84220914,1.1473132 0 0 0 -0.03754,0.006 c -2.741088,0.436292 -5.5866,0.125475 -8.507843,0.222173 l -11.557392,0 c 1.014483,-1.619407 1.840575,-3.848116 2.495352,-6.592178 1.056825,-4.429 1.67379,-10.107999 1.675592,-16.255431 -0.0022,-6.183935 -0.62538,-11.88817 -1.692919,-16.3261906 -0.655198,-2.723828 -1.482205,-4.9369847 -2.493904,-6.5430658 z"
       style="color:#000000;font-style:normal;font-variant:normal;font-weight:normal;font-stretch:normal;font-size:medium;line-height:normal;font-family:sans-serif;text-indent:0;text-align:start;text-decoration:none;text-decoration-line:none;text-decoration-style:solid;text-decoration-color:#000000;letter-spacing:normal;word-spacing:normal;text-transform:none;direction:ltr;block-progression:tb;writing-mode:lr-tb;baseline-shift:baseline;text-anchor:start;white-space:normal;clip-rule:nonzero;display:inline;overflow:visible;visibility:visible;opacity:1;isolation:auto;mix-blend-mode:normal;color-interpolation:sRGB;color-interpolation-filters:linearRGB;solid-color:#000000;solid-opacity:1;fill:#0000ff;fill-opacity:1;fill-rule:nonzero;stroke:none;stroke-width:2.27929544;stroke-linecap:butt;stroke-linejoin:round;stroke-miterlimit:4;stroke-dasharray:none;stroke-dashoffset:0;stroke-opacity:1;color-rendering:auto;image-rendering:auto;shape-rendering:auto;text-rendering:auto;enable-background:accumulate" />
    <path
       style="color:#000000;font-style:normal;font-variant:normal;font-weight:normal;font-stretch:normal;font-size:medium;line-height:normal;font-family:sans-serif;text-indent:0;text-align:start;text-decoration:none;text-decoration-line:none;text-decoration-style:solid;text-decoration-color:#000000;letter-spacing:normal;word-spacing:normal;text-transform:none;direction:ltr;block-progression:tb;writing-mode:lr-tb;baseline-shift:baseline;text-anchor:start;white-space:normal;clip-rule:nonzero;display:inline;overflow:visible;visibility:visible;opacity:1;isolation:auto;mix-blend-mode:normal;color-interpolation:sRGB;color-interpolation-filters:linearRGB;solid-color:#000000;solid-opacity:1;fill:url(#jcify90-_0066ff-_fff);fill-opacity:1;fill-rule:nonzero;stroke:none;stroke-width:2.27929544;stroke-linecap:butt;stroke-linejoin:round;stroke-miterlimit:4;stroke-dasharray:none;stroke-dashoffset:0;stroke-opacity:1;color-rendering:auto;image-rendering:auto;shape-rendering:auto;text-rendering:auto;enable-background:accumulate"
       d="m 26.192665,1.9187 c 1.014674,1.606081 1.844114,3.8192379 2.501239,6.5430657 0.991662,4.1104943 1.594219,9.3135613 1.680522,14.9715933 2.199007,-1.148891 4.576339,-2.065092 7.204085,-2.520499 3.49611,-0.413432 7.164302,0.669677 9.326083,2.819336 2.184037,1.721099 3.994268,3.96551 7.050663,4.836523 2.638613,0.438497 5.399503,0.24912 8.065335,0.03343 4.898971,-0.632573 9.64962,-1.772778 14.217111,-3.24991 0.07526,-0.192658 0.153792,-0.383594 0.225806,-0.578015 C 71.752836,12.103062 60.113075,3.1524102 46.576016,2.2273717 a 0.84468635,1.1473131 0 0 1 -0.08684,-0.011777 C 45.660408,2.0410655 44.83519,1.9404633 44.024116,1.9187202 c -5.94334,-2.014e-4 -11.887721,-2.02e-5 -17.831451,0 z"
       id="path4218"
       inkscape:connector-curvature="0" />
    <path
       style="color:#000000;font-style:normal;font-variant:normal;font-weight:normal;font-stretch:normal;font-size:medium;line-height:normal;font-family:sans-serif;text-indent:0;text-align:start;text-decoration:none;text-decoration-line:none;text-decoration-style:solid;text-decoration-color:#000000;letter-spacing:normal;word-spacing:normal;text-transform:none;direction:ltr;block-progression:tb;writing-mode:lr-tb;baseline-shift:baseline;text-anchor:start;white-space:normal;clip-rule:nonzero;display:inline;overflow:visible;visibility:visible;opacity:1;isolation:auto;mix-blend-mode:normal;color-interpolation:sRGB;color-interpolation-filters:linearRGB;solid-color:#000000;solid-opacity:1;fill:#0000ff;fill-opacity:1;fill-rule:nonzero;stroke:none;stroke-width:2;stroke-linecap:butt;stroke-linejoin:round;stroke-miterlimit:4;stroke-dasharray:none;stroke-dashoffset:0;stroke-opacity:1;color-rendering:auto;image-rendering:auto;shape-rendering:auto;text-rendering:auto;enable-background:accumulate"
       d="m 83.001295,20.865092 c 2.563397,1.77e-4 4.619882,2.03115 4.620072,4.562759 -1.9e-4,2.531597 -2.056675,4.562571 -4.620072,4.562758 -2.563397,-1.87e-4 -4.619882,-2.031161 -4.620072,-4.562758 1.9e-4,-2.531609 2.056675,-4.562582 4.620072,-4.562759 z"
       id="path4163"
       inkscape:connector-curvature="0" />
    <path
       style="color:#000000;font-style:normal;font-variant:normal;font-weight:normal;font-stretch:normal;font-size:medium;line-height:normal;font-family:sans-serif;text-indent:0;text-align:start;text-decoration:none;text-decoration-line:none;text-decoration-style:solid;text-decoration-color:#000000;letter-spacing:normal;word-spacing:normal;text-transform:none;direction:ltr;block-progression:tb;writing-mode:lr-tb;baseline-shift:baseline;text-anchor:start;white-space:normal;clip-rule:nonzero;display:inline;overflow:visible;visibility:visible;opacity:1;isolation:auto;mix-blend-mode:normal;color-interpolation:sRGB;color-interpolation-filters:linearRGB;solid-color:#000000;solid-opacity:1;fill:url(#linearGradient4175);fill-opacity:1;fill-rule:nonzero;stroke:none;stroke-width:2.27929544;stroke-linecap:butt;stroke-linejoin:round;stroke-miterlimit:4;stroke-dasharray:none;stroke-dashoffset:0;stroke-opacity:1;color-rendering:auto;image-rendering:auto;shape-rendering:auto;text-rendering:auto;enable-background:accumulate"
       d="m 83.001295,20.865092 c -2.126299,1.48e-4 -3.884153,1.406608 -4.428633,3.328017 3.390024,0.192324 6.602592,1.0941 8.835772,2.538936 0.125065,-0.415574 0.212893,-0.846934 0.212933,-1.304194 -1.9e-4,-2.531609 -2.056675,-4.562582 -4.620072,-4.562759 z"
       id="path4173"
       inkscape:connector-curvature="0" />
  </g>
</svg>
