<?xml version="1.0" encoding="UTF-8" standalone="no"?>
<!-- Created with Inkscape (http://www.inkscape.org/) -->

<svg
   xmlns:dc="http://purl.org/dc/elements/1.1/"
   xmlns:cc="http://creativecommons.org/ns#"
   xmlns:rdf="http://www.w3.org/1999/02/22-rdf-syntax-ns#"
   xmlns:svg="http://www.w3.org/2000/svg"
   xmlns="http://www.w3.org/2000/svg"
   xmlns:sodipodi="http://sodipodi.sourceforge.net/DTD/sodipodi-0.dtd"
   xmlns:inkscape="http://www.inkscape.org/namespaces/inkscape"
   width="126.46195"
   height="49.999195"
   viewBox="0 0 126.46196 49.999194"
   id="svg4291"
   version="1.1"
   inkscape:version="0.91 r13725"
   sodipodi:docname="OrGate.svg">
  <defs
     id="defs4293">
    <linearGradient
       id="jcify90-_0066ff-_fff"
       x1="22.471123"
       y1="40.427212"
       x2="22.471123"
       y2="3.1156476"
       gradientTransform="matrix(1.9895997,0,0,0.72295191,-147.81112,-15.109051)"
       gradientUnits="userSpaceOnUse">
      <stop
         offset="0%"
         stop-color="#0066ff"
         stop-opacity="1"
         style="-webkit-tap-highlight-color: rgba(0, 0, 0, 0);"
         id="stop5" />
      <stop
         offset="100%"
         stop-color="#ffffff"
         stop-opacity="1"
         style="-webkit-tap-highlight-color: rgba(0, 0, 0, 0);"
         id="stop7" />
    </linearGradient>
  </defs>
  <sodipodi:namedview
     id="base"
     pagecolor="#ffffff"
     bordercolor="#666666"
     borderopacity="1.0"
     inkscape:pageopacity="0.0"
     inkscape:pageshadow="2"
     inkscape:zoom="6.1062908"
     inkscape:cx="57.502641"
     inkscape:cy="-14.013245"
     inkscape:document-units="px"
     inkscape:current-layer="layer1"
     showgrid="false"
     fit-margin-left="10"
     fit-margin-right="10"
     fit-margin-top="0"
     fit-margin-bottom="0"
     inkscape:window-width="1855"
     inkscape:window-height="1056"
     inkscape:window-x="1985"
     inkscape:window-y="24"
     inkscape:window-maximized="1"
     units="px" />
  <metadata
     id="metadata4296">
    <rdf:RDF>
      <cc:Work
         rdf:about="">
        <dc:format>image/svg+xml</dc:format>
        <dc:type
           rdf:resource="http://purl.org/dc/dcmitype/StillImage" />
        <dc:title />
      </cc:Work>
    </rdf:RDF>
  </metadata>
  <g
     inkscape:label="Layer 1"
     inkscape:groupmode="layer"
     id="layer1">
    <path
       style="fill:none;fill-rule:evenodd;stroke:#000000;stroke-width:2.50293589;stroke-linecap:butt;stroke-linejoin:miter;stroke-miterlimit:4;stroke-dasharray:none;stroke-opacity:1"
       d="m 10,11.233446 19.55419,0"
       id="path4402"
       inkscape:connector-curvature="0" />
    <path
       inkscape:connector-curvature="0"
       id="path4404"
       d="m 10,38.765748 19.55419,0"
       style="fill:none;fill-rule:evenodd;stroke:#000000;stroke-width:2.50293589;stroke-linecap:butt;stroke-linejoin:miter;stroke-miterlimit:4;stroke-dasharray:none;stroke-opacity:1" />
    <path
       style="fill:none;fill-rule:evenodd;stroke:#000000;stroke-width:2.50293589;stroke-linecap:butt;stroke-linejoin:miter;stroke-miterlimit:4;stroke-dasharray:none;stroke-opacity:1"
       d="m 96.907772,24.999597 19.554188,0"
       id="path4406"
       inkscape:connector-curvature="0" />
    <path
       style="opacity:1;fill:none;fill-opacity:1;stroke:#000000;stroke-width:2.27929544;stroke-linejoin:round;stroke-miterlimit:4;stroke-dasharray:none;stroke-opacity:1"
       d="m 24.042012,1.1397398 a 8.9970937,24.095066 0 0 1 7.81836,23.8593742 8.9970937,24.095066 0 0 1 -7.74805,23.83594 l 18.912111,0 c 3.87279,-0.0941 7.760912,0.22228 11.619141,-0.22851 0.207217,-0.0152 0.416539,-0.0435 0.625,-0.0664 A 47.607145,35.778383 0 0 0 96.487324,24.983494 47.607145,35.778383 0 0 0 54.895527,1.4483338 c -1.165669,-0.180727 -2.329811,-0.285881 -3.478516,-0.308594 -9.124318,-2.29e-4 -18.250529,3.7e-5 -27.374999,0 z"
       id="path4320"
       inkscape:connector-curvature="0" />
    <path
       inkscape:connector-curvature="0"
       id="path4228"
       d="m 27.173666,2.4266318 c 8.03992,-2e-5 16.080721,-2e-4 24.120125,0 1.09712,0.0216 2.213357,0.12154 3.334407,0.29492 a 1.1425841,1.1397617 0 0 0 0.11748,0.0117 c 18.31121,0.91895 34.055993,9.8106902 40.427993,22.3984422 -6.309887,12.51075 -21.881542,21.39208 -40.061849,22.41795 a 1.1425841,1.1397617 0 0 0 -0.06065,0.004 c -0.228034,0.025 -0.422955,0.0507 -0.583482,0.0625 a 1.1425841,1.1397617 0 0 0 -0.05093,0.006 c -3.718701,0.43342 -7.579067,0.12465 -11.542176,0.22071 l -15.679349,0 c 1.376289,-1.60878 2.497008,-3.82282 3.385312,-6.54882 1.433742,-4.39985 2.270749,-10.04147 2.273195,-16.14844 -0.003,-6.143252 -0.848415,-11.809942 -2.296693,-16.2187522 -0.888876,-2.7059 -2.010837,-4.90449 -3.383358,-6.5 z"
       style="color:#000000;font-style:normal;font-variant:normal;font-weight:normal;font-stretch:normal;font-size:medium;line-height:normal;font-family:sans-serif;text-indent:0;text-align:start;text-decoration:none;text-decoration-line:none;text-decoration-style:solid;text-decoration-color:#000000;letter-spacing:normal;word-spacing:normal;text-transform:none;direction:ltr;block-progression:tb;writing-mode:lr-tb;baseline-shift:baseline;text-anchor:start;white-space:normal;clip-rule:nonzero;display:inline;overflow:visible;visibility:visible;opacity:1;isolation:auto;mix-blend-mode:normal;color-interpolation:sRGB;color-interpolation-filters:linearRGB;solid-color:#000000;solid-opacity:1;fill:#0000ff;fill-opacity:1;fill-rule:nonzero;stroke:none;stroke-width:2.27929544;stroke-linecap:butt;stroke-linejoin:round;stroke-miterlimit:4;stroke-dasharray:none;stroke-dashoffset:0;stroke-opacity:1;color-rendering:auto;image-rendering:auto;shape-rendering:auto;text-rendering:auto;enable-background:accumulate" />
    <path
       style="color:#000000;font-style:normal;font-variant:normal;font-weight:normal;font-stretch:normal;font-size:medium;line-height:normal;font-family:sans-serif;text-indent:0;text-align:start;text-decoration:none;text-decoration-line:none;text-decoration-style:solid;text-decoration-color:#000000;letter-spacing:normal;word-spacing:normal;text-transform:none;direction:ltr;block-progression:tb;writing-mode:lr-tb;baseline-shift:baseline;text-anchor:start;white-space:normal;clip-rule:nonzero;display:inline;overflow:visible;visibility:visible;opacity:1;isolation:auto;mix-blend-mode:normal;color-interpolation:sRGB;color-interpolation-filters:linearRGB;solid-color:#000000;solid-opacity:1;fill:url(#jcify90-_0066ff-_fff);fill-opacity:1;fill-rule:nonzero;stroke:none;stroke-width:2.27929544;stroke-linecap:butt;stroke-linejoin:round;stroke-miterlimit:4;stroke-dasharray:none;stroke-dashoffset:0;stroke-opacity:1;color-rendering:auto;image-rendering:auto;shape-rendering:auto;text-rendering:auto;enable-background:accumulate"
       d="m 27.173666,2.2480318 c 1.376558,1.59551 2.501819,3.7941 3.393309,6.5 1.345339,4.0834402 2.1628,9.2522602 2.279882,14.8730522 2.983286,-1.14133 6.208496,-2.0515 9.773431,-2.50391 4.743002,-0.41071 9.719458,0.66527 12.652242,2.80078 2.962977,1.70977 5.418828,3.93941 9.565291,4.80469 3.579678,0.43561 7.325243,0.24748 10.941847,0.0332 6.646195,-0.62841 13.091169,-1.76111 19.287662,-3.22852 0.102103,-0.19139 0.208642,-0.38107 0.306341,-0.57421 C 88.98293,12.365362 73.191832,3.4736218 54.826765,2.5546718 a 1.1459448,1.1397616 0 0 1 -0.117815,-0.0117 c -1.124346,-0.17338 -2.243878,-0.27332 -3.344224,-0.29492 -8.06304,-2e-4 -16.127492,-2e-5 -24.19106,0 z"
       id="path4218"
       inkscape:connector-curvature="0" />
  </g>
</svg>
